<?xml version="1.0" encoding="UTF-8"?><svg id="Layer_2" xmlns="http://www.w3.org/2000/svg" viewBox="0 0 173.56 148.46"><defs><style>.cls-1{fill:#a99c37;}.cls-2{fill:#d5c13c;}.cls-3{fill:#8b803a;}.cls-4{fill:#a49638;}</style></defs><g id="Layer_1-2"><g><path class="cls-4" d="M173.41,145.32c0,2.91-.51,3.9-3.61,2.54-14.57-6.41-29.21-12.66-43.83-18.95-38.07-16.39-76.18-32.69-114.17-49.27-4.05-1.77-9.08-2.16-11.81-6.48,.96-.26,1.96-.42,2.86-.81C57.18,48.95,111.49,25.54,165.79,2.09c7.64-3.3,7.58-3.41,7.59,5.05,.05,32.6,.12,65.21,.18,97.81-.06,13.46-.17,26.92-.14,40.38ZM54.55,89.93c29.88,12.88,59.77,25.74,89.66,38.6,5.79,2.49,11.64,4.86,17.37,7.49,3.06,1.4,4.22,.79,4.14-2.62-.12-5.32-.02-10.65-.02-15.97,0-33.61,0-67.23-.02-100.84,0-6.09-.07-6.18-5.51-3.84-39.69,17.07-79.37,34.19-119.04,51.29-7.27,3.13-14.54,6.27-23.18,9.99,13.18,5.73,24.88,10.85,36.59,15.9Z"/><path class="cls-2" d="M40.55,74.02c6.75,4.94,14.76,7.29,22.26,10.65,29.99,13.42,60.13,26.5,90.19,39.76,5.38,2.37,5.38,2.48,5.36-3.36-.04-15.65-.1-31.3-.16-46.95-4.91-.02-9.83-.04-14.74-.06-.01,6.98-.14,13.97,0,20.95,.09,4.43-1.71,5.09-5.52,3.68-9.98-3.68-20.1-6.99-30.04-10.77-12.42-4.72-25.28-8.26-37.4-13.79-9.98-.04-19.96-.07-29.95-.11Z"/><path class="cls-3" d="M40.55,74.02c9.98,.04,19.96,.07,29.95,.11,.55-.37,1.05-.88,1.66-1.09,22.41-8.02,44.84-16,67.26-24.02,3.59-1.28,4.01,.9,4.02,3.55,.03,7.16,.03,14.32,.04,21.48,4.91,.02,9.83,.04,14.74,.06,.06-15.96,.01-31.93,.23-47.89,.06-4.34-1.59-4.15-4.7-2.77-17.62,7.81-35.29,15.52-52.93,23.29-18.86,8.3-37.7,16.64-56.56,24.96-1.35,.59-2.88,.88-3.69,2.33Z"/><path class="cls-1" d="M143.46,74.05c0-7.16,0-14.32-.04-21.48-.01-2.65-.43-4.83-4.02-3.55-22.42,8.01-44.84,16-67.26,24.02-.6,.22-1.11,.72-1.66,1.09,12.12,5.53,24.98,9.07,37.4,13.79,9.94,3.77,20.06,7.09,30.04,10.77,3.82,1.41,5.61,.74,5.52-3.68-.14-6.98-.01-13.97,0-20.95Z"/></g></g></svg>