<svg width="159" height="42" xmlns="http://www.w3.org/2000/svg" viewBox="0 0 159 42" aria-labelledby="nintendo-title"><defs><mask id="a" x="0" y="0" width="159" height="42" maskUnits="userSpaceOnUse"><path fill="#fff" fill-rule="evenodd" d="M0 0h159v41.59H0V0z"/></mask></defs><g mask="url(#a)" data-name="nintendo-racetrack/black"><path d="M138.18 36.57H20.84c-9.91 0-15.9-7.07-15.9-15.77S11 5.16 20.84 5.15h117.34c9.86 0 15.95 7 15.95 15.65s-6.06 15.81-15.95 15.77zm0-36.57H20.77C8.36 0 0 9.51 0 20.83s8.34 20.75 20.8 20.76h117.41c12.46 0 20.79-9.32 20.79-20.76S150.66 0 138.23 0zm6.14 13.88H144V13h.33c.47 0 .69.1.69.47s-.2.46-.64.46zm1.45-.53c0-.52-.44-.86-1.35-.86h-1.25v3.25h.83v-1.37h.38l.6 1.37h.87l-.72-1.49a.91.91 0 00.7-.9zm-1.42 3.19a2.31 2.31 0 01-2.25-2.44 2.3 2.3 0 012.25-2.34 2.39 2.39 0 010 4.78zm0-5.37a2.9 2.9 0 00-2.82 2.93 2.91 2.91 0 002.82 3 3 3 0 000-6zm-64.08 8.34a2.13 2.13 0 011.89-1.19 2.29 2.29 0 012 1.19 5.17 5.17 0 01.36 2.56h-4.61a5.17 5.17 0 01.36-2.56zm10.07 4.61c0-4.07-3.7-7.43-8.21-7.43S74 20 74 24s3.68 7.35 8.15 7.35A8.15 8.15 0 0090 26h-5.53v.8c0 2.38-1.48 2.93-2.32 2.93s-2.25-.55-2.25-2.93v-2.7zm11.6-7.21a6.58 6.58 0 00-4.43 2v-1.35H92v13.07h5.49v-8.59a2.63 2.63 0 012.64-2.41 2.53 2.53 0 012.56 2.37v8.59h5.48v-7.11a6.14 6.14 0 00-6.23-6.57zm-45.1 0a6.53 6.53 0 00-4.37 2v-1.35h-5.54v13.07h5.52v-8.59a2.64 2.64 0 012.66-2.41A2.52 2.52 0 0157.59 22v8.59h5.53v-7.11a6.17 6.17 0 00-6.28-6.57zM120.16 24v2.31c0 2-1.32 2.55-2.18 2.55s-2.14-.52-2.14-2.55v-4.66c0-2 1.3-2.54 2.14-2.54s2.18.52 2.18 2.54zm0-5.83A7.1 7.1 0 00117 17c-4-.37-7.08 3.39-7.08 6.84a7 7 0 003.8 6.49 6.32 6.32 0 006.38-.48v.74h5.5V11h-5.5zM137.74 24v2.75c0 2.1-1.16 3-2.27 3s-2.29-.86-2.29-3v-5.57c0-2.09 1.19-2.94 2.28-2.94s2.28.85 2.28 2.94zm-2.22-7.33c-4.5 0-8.1 3.28-8.1 7.33s3.6 7.36 8.1 7.36S143.6 28 143.6 24s-3.58-7.33-8.08-7.33zM38.33 15h5.54v-4h-5.54zm0 15.65h5.52V17.51h-5.5zm36.35-15h-3V13h-5.5v2.6h-3v1.94h3V30.6h5.5V17.54h3zm-45.21 9L21.51 11h-5.72v19.6h5.68V16.89l8 13.71h5.67V11h-5.65z" fill="#fff" fill-rule="evenodd"/></g></svg>