<svg xmlns="http://www.w3.org/2000/svg" viewBox="0 0 142 48.18" width="142" height="48"><path fill="#ed1c24" d="M0 0h142v48.18H0z"/><path fill="#fff" d="M11.07 14.41a2.19 2.19 0 102.18-2.18 2.19 2.19 0 00-2.18 2.18zm7.41-7h-5.07a6 6 0 00-5.95 6v11.3a5.94 5.94 0 006 5.94h5.07a.18.18 0 00.17-.17V7.61a.18.18 0 00-.22-.17zm-1.71 21.38h-3.36a4.1 4.1 0 01-4.09-4.09V13.41a4.1 4.1 0 014.09-4.09h3.38v19.47zM24.7 7.44h-3.58a.17.17 0 00-.12.16v22.88a.18.18 0 00.17.17h3.53a6 6 0 005.95-5.95V13.41a6 6 0 00-5.95-5.97zm.86 15.12a2.36 2.36 0 112.35-2.36 2.36 2.36 0 01-2.35 2.36zM72.48 28V11.6H69v10.54L60.88 11.6h-3.29V28h3.31V17.05L69.59 28zM44.8 11.07a8.7 8.7 0 108.83 8.7 8.75 8.75 0 00-8.83-8.7zm0 14.09a5.38 5.38 0 115.2-5.37 5.3 5.3 0 01-5.2 5.37zM80.74 11.6h-3.51V28H89.7v-3.24h-9V11.6zm15.88 0H93.1V28h3.52zm37.94 3.19V11.6h-13.5V28h13.5v-3.24h-10v-3.68h9.49V18h-9.49v-3.21zm-21.75 7.35l-8.12-10.54h-3.29V28h3.31V17.05L113.4 28h2.89V11.6h-3.48zM32.45 36.08a.53.53 0 000 1.06.52.52 0 00.53-.53.53.53 0 00-.53-.53zm8.21 4c-.27 0-.46-.13-.46-.53v-1.19h1.12v-.74H40.2v-.93h-.84v.93h-.6v.74h.6v1.19c0 .8.4 1.24 1.16 1.24a1.71 1.71 0 001-.32l-.31-.65a1.17 1.17 0 01-.58.21zm3.53-2.49a1.63 1.63 0 000 3.25 1.89 1.89 0 001.32-.48l-.49-.53a1.26 1.26 0 01-.78.31.75.75 0 01-.8-.65h2.21a1.27 1.27 0 000-.28 1.52 1.52 0 00-1.52-1.62zm-.71 1.35a.7.7 0 01.71-.63.67.67 0 01.68.63zm-7.23-1.35a1 1 0 00-.91.46v-.36h-.82v3.09h.84V39a.64.64 0 01.66-.7c.38 0 .61.25.61.7v1.71h.84v-2a1.19 1.19 0 00-1.22-1.24zM32 40.73h.84v-3.09H32zm16.83-3.19A1 1 0 0048 38v-.36h-.82v3.09H48V39a.64.64 0 01.66-.7c.38 0 .61.25.61.7v1.71h.83v-2a1.17 1.17 0 00-1.21-1.24zm-19.4 1.69l-2.28-3h-.83v4.48h.89v-3l2.28 3h.84v-4.48h-.9zm71-1.69a1 1 0 00-.91.46v-.36h-.82v3.09h.84V39a.64.64 0 01.66-.7c.38 0 .61.25.61.7v1.71h.84v-2a1.18 1.18 0 00-1.22-1.24zm2.83 3.19h.84v-4.61h-.84zm-8.41-4.56a2.32 2.32 0 102.35 2.32 2.26 2.26 0 00-2.35-2.32zm0 3.78a1.46 1.46 0 111.42-1.46A1.39 1.39 0 0194.89 40zm10.88.78h.83v-3.09h-.83zm.42-4.65a.53.53 0 10.53.53.53.53 0 00-.49-.53zm-19 1.46a1.07 1.07 0 00-.89.42v-1.84h-.84v4.61h.84V39a.64.64 0 01.66-.7c.38 0 .61.25.61.7v1.71h.84v-2a1.19 1.19 0 00-1.22-1.24zm27 0a1.63 1.63 0 000 3.25 1.91 1.91 0 001.33-.48l-.49-.53a1.28 1.28 0 01-.78.31.74.74 0 01-.8-.65h2.2a1.27 1.27 0 000-.28 1.51 1.51 0 00-1.52-1.62zm-.7 1.35a.7.7 0 011.39 0zM110 37.54a1 1 0 00-.92.46v-.36h-.79v3.09h.83V39a.64.64 0 01.67-.7c.38 0 .6.25.6.7v1.71h.84v-2a1.2 1.2 0 00-1.23-1.17zM82.77 40a.86.86 0 010-1.71.91.91 0 01.67.3l.61-.49a1.52 1.52 0 00-1.24-.59 1.64 1.64 0 100 3.27 1.55 1.55 0 001.25-.59l-.58-.51a1 1 0 01-.71.32zm-28.86-2a1.11 1.11 0 00-.91-.4 1.64 1.64 0 000 3.27 1.16 1.16 0 00.93-.42v.34h.82v-4.65h-.84V38zm-.76 2a.86.86 0 010-1.71.86.86 0 010 1.71zm12.72-1.94h-.24c-.54-.09-.93-.19-.93-.51s.36-.53.85-.53a2.5 2.5 0 011.27.38l.42-.72a3.12 3.12 0 00-1.71-.48c-1 0-1.78.5-1.78 1.43s.57 1.16 1.36 1.29h.29c.62.09.95.21.95.53s-.35.55-.88.55a2.48 2.48 0 01-1.42-.47l-.46.72a3.18 3.18 0 001.88.59c1 0 1.85-.48 1.85-1.47 0-.81-.65-1.16-1.45-1.29zm-8-.55a1.64 1.64 0 101.67 1.63 1.6 1.6 0 00-1.68-1.6zm0 2.49a.81.81 0 01-.82-.86.82.82 0 111.64 0 .8.8 0 01-.83.86zm14.43-.23l-.7-2.18h-.87L70 39.78l-.66-2.16h-.89l1 3.09h1l.68-2.09.69 2.09h1l1-3.09h-.87l-.65 2.18zm6.89.23c-.26 0-.45-.13-.45-.53v-1.11h1.12v-.74h-1.13v-.93h-.86v.93h-.6v.74h.6v1.19c0 .8.4 1.24 1.16 1.24a1.71 1.71 0 001-.32l-.31-.65a1.07 1.07 0 01-.57.21zm-4.06.7H76v-3.06h-.84zm.4-4.65a.53.53 0 10.53.53.52.52 0 00-.54-.5z"/></svg>