<svg xmlns="http://www.w3.org/2000/svg" width="100" height="100" viewBox="0 0 100 100"><g fill="none" fill-rule="evenodd"><polygon fill="#E60012" points="0 100 100 100 100 0 0 0"/><path fill="#FFF" d="M70.5563475,70.0421251 L69.3256536,70.0421251 L69.3256536,66.7992511 L70.5563475,66.7992511 C71.4575687,66.7992511 72.1908341,67.5262154 72.1908341,68.4203232 C72.1908341,69.3146134 71.4575687,70.0421251 70.5563475,70.0421251 L70.5563475,70.0421251 Z M70.4991359,65.6235907 L68.1674401,65.6235907 L68.1674401,71.2174206 L70.4991359,71.2174206 C72.0981182,71.2174206 73.3987169,69.9627502 73.3987169,68.4203232 C73.3987169,66.878261 72.0981182,65.6235907 70.4991359,65.6235907 L70.4991359,65.6235907 Z M66.1788301,76.0804543 C67.3802743,76.0804543 68.5004081,76.7161831 69.0999344,77.7188611 L70.8313681,76.2255187 C69.7721251,74.66156 68.0221115,73.7331478 66.1168355,73.7331478 C62.9850966,73.7331478 60.4368796,76.2601882 60.4368796,79.3667564 C60.4368796,82.4727771 62.9850966,85 66.1168355,85 C68.0221115,85 69.7721251,84.0714053 70.8313681,82.5076291 L69.0999344,81.0144692 C68.5004081,82.0171471 67.3799064,82.652876 66.1788301,82.652876 C64.3177045,82.652876 62.8033439,81.178693 62.8033439,79.3667564 C62.8033439,77.5546372 64.3177045,76.0804543 66.1788301,76.0804543 L66.1788301,76.0804543 Z M49.7673706,76.3180315 L53.1678754,76.3180315 L53.1678754,84.6330509 L55.4570764,84.6330509 L55.4570764,76.3180315 L58.7808697,76.3180315 L58.7808697,74.0782004 L49.7673706,74.0782004 L49.7673706,76.3180315 Z M80.4344596,78.237991 L75.4645902,78.237991 L75.4645902,74.0782004 L73.2638741,74.0782004 L73.2638741,84.6330509 L75.4645902,84.6330509 L75.4645902,80.4227158 L80.4344596,80.4227158 L80.4344596,84.6330509 L82.6368314,84.6330509 L82.6368314,74.0782004 L80.4344596,74.0782004 L80.4344596,78.237991 Z M86.560703,83.0623408 L86.1616933,84.211178 L85.7628675,83.0623408 L85.3235705,83.0623408 L85.3235705,84.6332334 L85.6066853,84.6332334 L85.6066853,83.4274652 L86.0202279,84.6190006 L86.0251948,84.6332334 L86.2981917,84.6332334 L86.3033426,84.6190006 L86.7168852,83.4274652 L86.7168852,84.6332334 L87,84.6332334 L87,83.0623408 L86.560703,83.0623408 Z M80.0501667,70.161826 C79.0836397,70.161826 78.2977616,69.3808503 78.2977616,68.4201407 C78.2977616,67.4605259 79.0836397,66.6793677 80.0501667,66.6793677 C81.0163258,66.6793677 81.8022039,67.4605259 81.8022039,68.4201407 C81.8022039,69.3808503 81.0163258,70.161826 80.0501667,70.161826 L80.0501667,70.161826 Z M80.0501667,65.4352806 C78.3939728,65.4352806 77.0460963,66.774435 77.0460963,68.4205056 C77.0460963,70.0667587 78.3939728,71.4060956 80.0501667,71.4060956 C81.7063606,71.4060956 83.0538693,70.0667587 83.0538693,68.4205056 C83.0538693,66.774435 81.7063606,65.4352806 80.0501667,65.4352806 L80.0501667,65.4352806 Z M83.6784142,83.3632354 L84.1659088,83.3632354 L84.1659088,84.6332334 L84.4740422,84.6332334 L84.4740422,83.3632354 L84.9497633,83.3632354 L84.9497633,83.0623408 L83.6784142,83.0623408 L83.6784142,83.3632354 Z M53.6647519,70.1813504 L50.4235568,70.1813504 L50.4235568,68.8695667 L53.4208207,68.8695667 L53.4208207,67.8575827 L50.4235568,67.8575827 L50.4235568,66.6505373 L53.6647519,66.6505373 L53.6647519,65.6235907 L49.2791402,65.6254154 L49.2791402,71.2174206 L53.6647519,71.2157783 L53.6647519,70.1813504 Z M63.3960638,71.2174206 L63.3960638,65.6235907 L62.2516472,65.6235907 L62.2516472,69.2980085 L59.4775271,65.6235907 L58.3386293,65.6235907 L58.3386293,71.2174206 L59.4819421,71.2174206 L59.4819421,67.4764009 L62.2827365,71.2174206 L63.3960638,71.2174206 Z M25.7896272,71.2174206 L27.0446039,71.2174206 L27.0446039,65.6235907 L25.7896272,65.6235907 L25.7896272,71.2174206 Z M20.8962853,78.2217511 C19.3587458,77.9714009 18.3660964,77.6887534 18.3660964,76.9785764 C18.3660964,76.1580044 19.4715134,75.8425121 20.9553365,75.8425121 C22.3346703,75.8425121 23.7178672,76.3638317 24.2114325,76.5694765 L24.967509,74.7425772 C24.4320008,74.5318232 22.7320244,73.9298515 20.846984,73.9298515 C18.5478491,73.9298515 16.1044894,75.0418295 16.1044894,77.1028391 C16.1044894,78.7742731 17.2930564,79.6280548 20.3434848,80.1486444 C22.4939798,80.5154111 23.6783158,80.7181363 23.644835,81.6350529 C23.6258871,82.1401326 23.2323962,82.9875277 20.8081684,82.9875277 C18.8583739,82.9875277 17.484375,82.2866567 17.0071822,82.0018196 L16,83.8051801 C16.5369799,84.0850906 18.3379505,84.9229973 20.6552974,84.9229973 C24.0407174,84.9229973 25.8299145,83.7595624 25.8299145,81.5585976 C25.8299145,80.283308 25.3957684,78.9545544 20.8962853,78.2217511 L20.8962853,78.2217511 Z M37.7895365,81.7357769 L35.535288,74.0782004 L33.6469363,74.0782004 L31.405197,81.7078588 L29.3584556,74.0782004 L27.0420284,74.0782004 L30.0527214,84.6330509 L32.6097685,84.6330509 L34.5939635,77.6790824 L36.5649133,84.6330509 L39.1324462,84.6330509 L42.1596956,74.0782004 L39.8441883,74.0782004 L37.7895365,81.7357769 Z M32.4419968,67.4764009 L35.2424233,71.2174206 L36.3557506,71.2174206 L36.3557506,65.6235907 L35.211334,65.6235907 L35.211334,69.2980085 L32.4373978,65.6235907 L31.2983161,65.6235907 L31.2983161,71.2174206 L32.4419968,71.2174206 L32.4419968,67.4764009 Z M44.803204,84.6330509 L47.17114,84.6330509 L47.17114,74.0782004 L44.803204,74.0782004 L44.803204,84.6330509 Z M45.150153,65.6235907 L40.37289,65.6235907 L40.37289,66.8107468 L42.1753322,66.8107468 L42.1753322,71.2174206 L43.3885499,71.2174206 L43.3885499,66.8107468 L45.150153,66.8107468 L45.150153,65.6235907 Z M17.6228971,67.4764009 L20.4238754,71.2174206 L21.5370188,71.2174206 L21.5370188,65.6235907 L20.3927862,65.6235907 L20.3927862,69.2980085 L17.618666,65.6235907 L16.4795843,65.6235907 L16.4795843,71.2174206 L17.6228971,71.2174206 L17.6228971,67.4764009 Z M34.2050716,27.4388041 C34.2050716,29.764944 36.1061165,31.6505989 38.4512415,31.6505989 C40.7963664,31.6505989 42.6974113,29.764944 42.6974113,27.4388041 C42.6974113,25.1124818 40.7963664,23.2270093 38.4512415,23.2270093 C36.1061165,23.2270093 34.2050716,25.1124818 34.2050716,27.4388041 L34.2050716,27.4388041 Z M45.3153493,55.1847917 L38.75404,55.1847917 C36.6329786,55.1847917 34.6394017,54.3660445 33.1403098,52.8787236 C31.6406661,51.3921327 30.8152366,49.4146948 30.8152366,47.3100747 L30.8152366,25.4863648 C30.8152366,23.3817447 31.6406661,21.4043068 33.139574,19.9182633 C34.6388498,18.43076 36.6329786,17.6116478 38.75404,17.6116478 L45.3153493,17.6116478 L45.3153493,55.1847917 Z M48.6249777,14 L38.75404,14 C32.3586628,14 27.1741119,19.1425792 27.1741119,25.4861823 L27.1741119,47.3098922 C27.1741119,53.6536778 32.3586628,58.7960746 38.75404,58.7960746 L48.6249777,58.7960746 C48.808386,58.7960746 48.95629,58.649003 48.95629,58.4676268 L48.95629,14.3280828 C48.95629,14.1468891 48.808386,14 48.6249777,14 L48.6249777,14 Z M62.4096691,34.1086653 C64.9313958,34.1086653 66.9755618,36.1364652 66.9755618,38.6379596 C66.9755618,41.1392716 64.9313958,43.1670714 62.4096691,43.1670714 C59.8877584,43.1670714 57.8435924,41.1392716 57.8435924,38.6379596 C57.8435924,36.1364652 59.8877584,34.1086653 62.4096691,34.1086653 L62.4096691,34.1086653 Z M53.8058494,58.7960746 L60.7558666,58.7960746 C67.1512438,58.7960746 72.3357948,53.6536778 72.3357948,47.3098922 L72.3357948,25.4861823 C72.3357948,19.1425792 67.1512438,14 60.7558666,14 L53.7690574,14 C53.6064365,14 53.474905,14.1302843 53.474905,14.2919535 L53.474905,58.4676268 C53.474905,58.649003 53.622993,58.7960746 53.8058494,58.7960746 L53.8058494,58.7960746 Z"/></g></svg>