<svg height="500" viewBox="0 0 253 500" width="253" xmlns="http://www.w3.org/2000/svg" xmlns:xlink="http://www.w3.org/1999/xlink"><mask id="a" fill="#fff"><path d="m0 0h31v110h-31z" fill="#fff" fill-rule="evenodd"/></mask><mask id="b" fill="#fff"><path d="m0 0h112v64h-112z" fill="#fff" fill-rule="evenodd"/></mask><mask id="c" fill="#fff"><path d="m1.22525 0h2.5495v5h-2.5495z" fill="#fff" fill-rule="evenodd"/></mask><mask id="d" fill="#fff"><path d="m1.226 0h2.548v5h-2.548z" fill="#fff" fill-rule="evenodd"/></mask><g fill="#e6e6e6" fill-rule="evenodd"><path d="m174.492889 350-9.492889 11.18903c11.84506 9.640549 25.3125 17.388508 39.947605 22.81097l5.052395-13.730983c-12.995883-4.834149-24.97006-11.716291-35.507111-20.269017"/><path d="m206.1625 384.385.675.245c-.225-.08-.445-.18-.67-.26z"/><path d="m213.009266 372-5.009266 13.969239c14.099333 5.036144 29.221646 7.872853 45 8.030761v-14.89413c-14.010378-.152268-27.459229-2.644963-39.990734-7.10587"/><path d="m208.33 384.8025.005-.015c-.555-.195-1.115-.385-1.67-.59z"/><path d="m165.2275 361.12.02-.025c-.495-.405-1.005-.8-1.495-1.215z"/><path d="m206.5625 120.84c.625-.23 1.25-.445 1.875-.665l-.005-.015z"/><path d="m208 121.030761 5.014206 13.969239c12.529957-4.466547 25.971588-6.953602 39.985794-7.11151v-14.88849c-15.776405.157908-30.902409 2.994617-45 8.030761"/><path d="m174.491705 155c10.535737-8.549935 22.50842-15.42983 35.508295-20.262402l-5.062991-13.737598c-14.627666 5.42624-28.093427 13.177219-39.937009 22.82017z"/><path d="m204.27 120.5925c.16-.06.31-.125.465-.185l-.47.17z"/><path d="m163.7375 146.1325c.5-.425 1.02-.825 1.525-1.24l-.02-.025z"/><path d="m116.85034 230c-1.197279 7.488502-1.85034 15.161699-1.85034 23.002798 0 7.835503.653061 15.514297 1.85034 22.997202l14.14966-2.563329c-1.055782-6.654581-1.632653-13.471468-1.632653-20.433873 0-6.962404.576871-13.784888 1.632653-20.439469z"/><path d="m132.235 183.9925c.185-.325.36-.66.545-.985l-.56.975z"/><path d="m130.798822 230c2.601178-13.787068 7.462022-26.781323 14.201178-38.594793l-12.994504-7.405207c-7.592935 13.281017-13.091266 27.894634-16.005496 43.424765z"/><path d="m146.083095 188c7.180515-11.931582 16.297994-22.586999 26.916905-31.576625l-9.724928-11.423375c-11.965616 10.102035-22.206304 22.118319-30.275072 35.557584z"/><path d="m133.3825 181.695c.075-.13.16-.255.235-.385l-.01-.005z"/><path d="m130.798822 276-14.798822 2.574921c2.91423 15.528232 8.412561 30.140063 16.005496 43.425079l12.994504-7.409924c-6.739156-11.812027-11.6-24.804693-14.201178-38.590076"/><path d="m132.2125 321.0075.575.995c-.19-.33-.365-.67-.555-1.005z"/><path d="m173 348.576625c-10.624642-8.989626-19.73639-19.645043-26.916905-31.576625l-13.083095 7.442416c8.063037 13.439265 18.303725 25.449902 30.275072 35.557584z"/><path d="m133.6125 324.705.01-.005c-.08-.135-.165-.27-.245-.405z"/><path d="m0 110c2.60296571-.56779 5.22891566-1.068119 7.87784986-1.500989.01149212 0 .02873031-.005622.04596849-.005622 2.49379055-.410382 5.01631135-.747683 7.55032435-1.034389.2068582-.022487.4137164-.056217.6205746-.078703 2.3156627-.247354 4.6485635-.427248 6.9987025-.573412.4022243-.022487.8044486-.06746 1.2124189-.089947 2.2179797-.118055 4.4531974-.163029 6.6941613-.185515v-106.53648251z" mask="url(#a)" transform="translate(223)"/><path d="m109.376108 48.8480766c-.016748-.1815281-.044662-.3573835-.066993-.5389116-.245641-2.2747739-.418706-4.5665662-.563858-6.8697039-.022331-.3857472-.066993-.7658217-.083741-1.1515689-.139569-2.6321574-.217727-5.2870058-.217727-7.9588725 0-2.7059032.078158-5.4004609.228892-8.0723276.016749-.4311293.066993-.8565857.094907-1.287715.145152-2.3088105.3238-4.6119482.575023-6.8980677.027914-.2325829.061411-.459493.089324-.6920759.290303-2.5073568.625268-4.9976954 1.038392-7.46534298.005582-.03403652.011165-.06807304.016748-.10778231.435454-2.62648467.943485-5.23027832 1.512925-7.80570821l-112.00111655 32.6637121 111.85038255 31.3362879c-1.077471-4.9636589-1.898135-10.0180819-2.473158-15.1519234" mask="url(#b)" transform="translate(0 220)"/><path d="m246.521336 398.260105c-.389611-.022367-.779221-.067103-1.168831-.089471-2.270872-.14539-4.536178-.324333-6.779221-.570378-.200371-.022368-.395176-.05592-.589982-.078288-2.454545-.285189-4.897959-.620706-7.313543-1.023326-.016698-.005592-.033395-.005592-.044527-.011184-2.565863-.43058-5.103896-.928263-7.625232-1.487458l30 105v-101.55536c-2.170686-.022368-4.335807-.067104-6.478664-.184535"/><path d="m168.544014 135.536822c.189554-.141624.384683-.277583.579812-.419207 1.928991-1.421904 3.891432-2.798489 5.892899-4.124089.345658-.232264.691315-.453197 1.042547-.679795 1.917841-1.257621 3.869132-2.464257 5.853874-3.625573.323356-.192609.641138-.379553.964495-.566496 2.174296-1.251956 4.382042-2.458592 6.628814-3.597249.100353-.045319.19513-.101969.295482-.147289 7.353579-3.716212 15.069542-6.820609 23.06426-9.239546h.005575l.128228-.073645-55.634096-30.063933-1.365904 63 .066901-.03399c3.958334-3.704882 8.128522-7.188832 12.477113-10.429188"/><path d="m114.052271 210.883651c2.419415-7.989308 5.516491-15.684973 9.229621-23.02605.067206-.138511.140012-.271481.212819-.409992 1.142501-2.243876 2.341008-4.45451 3.60672-6.631901.134412-.238239.274425-.482018.414437-.720257 1.265713-2.155229 2.58183-4.282757 3.948351-6.36596.095209-.144052.190417-.288103.280025-.426614 4.519602-6.820276 9.604854-13.241641 15.194151-19.192068l.061605-.110809-63 1.939152 29.985065 55.060848z"/><path d="m188.690243 382.960036c-2.063596-1.055439-4.093908-2.161675-6.102031-3.318707-.416048-.242694-.832095-.485389-1.25369-.733728-1.836156-1.083659-3.644576-2.206827-5.430807-3.369504-.449332-.287847-.893116-.575694-1.3369-.869185-1.819514-1.213473-3.605745-2.466454-5.369787-3.758944-.332838-.248339-.671223-.485389-1.004061-.733728-4.243685-3.171961-8.320951-6.564042-12.192967-10.17624l1.336899 62 54.663101-29.574875c-7.832789-2.393081-15.382665-5.446518-22.594156-9.092581-.244081-.118525-.477067-.248338-.715601-.372508"/><path d="m136.522666 338.451847c-.118996-.156364-.22666-.312727-.339989-.46909-1.456287-1.971294-2.861576-3.981679-4.221533-6.031155-.20966-.318311-.413653-.642206-.623313-.960517-1.27496-1.954541-2.504588-3.942589-3.683217-5.964143-.181327-.295973-.356989-.597531-.526983-.899089-1.269293-2.205839-2.493254-4.445184-3.643551-6.723621-.039666-.078181-.079331-.156363-.118996-.22896-3.728549-7.388165-6.83945-15.133732-9.264706-23.169688 0 0 0 0 0-.005584l-30.100378 55.067797 63 1.932203c-3.728548-3.981679-7.219104-8.175566-10.477334-12.548153"/><path d="m3.72775 2.5h.015-.035z" mask="url(#c)" transform="translate(251 391)"/><path d="m3.6785 2.5h.095c-.015 0-.03 0-.045 0-.02 0-.035 0-.05 0" mask="url(#d)" transform="translate(251 110)"/></g></svg>